<svg width="40" height="40" viewBox="0 0 40 40" fill="none" xmlns="http://www.w3.org/2000/svg">
<path d="M24.7147 10.5033C23.4847 10.4467 23.1147 10.4367 19.9997 10.4367C16.8847 10.4367 16.5164 10.4483 15.2864 10.5033C12.1214 10.6483 10.6481 12.1467 10.5031 15.2866C10.4481 16.5166 10.4347 16.885 10.4347 20C10.4347 23.115 10.4481 23.4833 10.5031 24.715C10.6481 27.8466 12.1147 29.3533 15.2864 29.4983C16.5147 29.5533 16.8847 29.5666 19.9997 29.5666C23.1164 29.5666 23.4847 29.555 24.7147 29.4983C27.8797 29.355 29.3514 27.8516 29.4981 24.715C29.5531 23.485 29.5647 23.115 29.5647 20C29.5647 16.885 29.5531 16.5166 29.4981 15.2866C29.3514 12.1483 27.8764 10.6483 24.7147 10.5033V10.5033ZM19.9997 25.9916C16.6914 25.9916 14.0081 23.31 14.0081 20C14.0081 16.6916 16.6914 14.01 19.9997 14.01C23.3081 14.01 25.9914 16.6916 25.9914 20C25.9914 23.3083 23.3081 25.9916 19.9997 25.9916ZM26.2281 15.1733C25.4547 15.1733 24.8281 14.5466 24.8281 13.7733C24.8281 13 25.4547 12.3733 26.2281 12.3733C27.0014 12.3733 27.6281 13 27.6281 13.7733C27.6281 14.545 27.0014 15.1733 26.2281 15.1733V15.1733ZM23.8881 20C23.8881 22.1483 22.1464 23.8883 19.9997 23.8883C17.8531 23.8883 16.1114 22.1483 16.1114 20C16.1114 17.8516 17.8531 16.1116 19.9997 16.1116C22.1464 16.1116 23.8881 17.8516 23.8881 20ZM19.9997 0C8.95474 0 -0.000244141 8.95499 -0.000244141 20C-0.000244141 31.045 8.95474 40 19.9997 40C31.0447 40 39.9997 31.045 39.9997 20C39.9997 8.95499 31.0447 0 19.9997 0ZM31.5964 24.81C31.4047 29.0516 29.0431 31.4016 24.8114 31.5966C23.5664 31.6533 23.1681 31.6666 19.9997 31.6666C16.8314 31.6666 16.4347 31.6533 15.1897 31.5966C10.9497 31.4016 8.59808 29.0483 8.40308 24.81C8.34641 23.5666 8.33308 23.1683 8.33308 20C8.33308 16.8316 8.34641 16.435 8.40308 15.19C8.59808 10.95 10.9514 8.59832 15.1897 8.40499C16.4347 8.34666 16.8314 8.33332 19.9997 8.33332C23.1681 8.33332 23.5664 8.34666 24.8114 8.40499C29.0531 8.59999 31.4064 10.9583 31.5964 15.19C31.6531 16.435 31.6664 16.8316 31.6664 20C31.6664 23.1683 31.6531 23.5666 31.5964 24.81Z" fill="white"/>
</svg>
